# xmcd
#
# Track frame offsets: 
#        150
#        13750
#        34977
#        62020
#        77795
#        93610
#        118310
#        171730
#        184745
#        199495
#        212707
#        229260
#        257687
#        283725
#        314792
#
# Disc length: 4483 seconds
#
# Revision: 3
# Processed by: cddbd v1.5.2PL0 Copyright (c) Steve Scherf et al.
# Submitted via: ExactAudioCopy v0.99pb4
#
DISCID=f011810f
DTITLE=Supercharge - Take That! - The Dortmund Concert - Kunstkopfaufn
DTITLE=ahme
DYEAR=1989
DGENRE=Blues
TTITLE0=Happy Birthday Baby
TTITLE1=Fool for You
TTITLE2=Take Me to the River
TTITLE3=Lucille
TTITLE4=A Good Fool is Hard to Find
TTITLE5=Stormy Monday Go-Go
TTITLE6=Caladonia
TTITLE7=Bad, Mad and Dangerous
TTITLE8=Don't Be Surprised
TTITLE9=Travelin' Man
TTITLE10=Don't Tease Me
TTITLE11=Rock Me Baby
TTITLE12=One Room Country Shack - You Said That You Loved Me
TTITLE13=Happy Birthday Blues
TTITLE14=Choo, Choo Cha Boogie
EXTD=The Dortmund Concert 1988
EXTT0=
EXTT1=
EXTT2=
EXTT3=
EXTT4=
EXTT5=
EXTT6=
EXTT7=
EXTT8=
EXTT9=
EXTT10=
EXTT11=
EXTT12=
EXTT13=
EXTT14=
PLAYORDER=
